<?xml version="1.0" encoding="utf-8"?>
<!-- Generator: Adobe Illustrator 19.0.0, SVG Export Plug-In . SVG Version: 6.00 Build 0)  -->
<svg version="1.1" id="Layer_1" xmlns="http://www.w3.org/2000/svg" xmlns:xlink="http://www.w3.org/1999/xlink" x="0px" y="0px"
	 viewBox="-200 456.4 439 279.1" style="enable-background:new -200 456.4 439 279.1;" xml:space="preserve">
<style type="text/css">
	.st0{fill:#FFFFFF;}
	.st1{fill:url(#SVGID_1_);}
</style>
<title>Alva</title>
<polygon class="st0" points="-115.9,721.6 -139.5,666.2 -163.4,721.6 -178.1,721.6 -146.6,649 -131.1,649 -99.7,721.6 "/>
<polygon class="st0" points="200.9,721.6 177.3,666.2 153.4,721.6 138.8,721.6 170.2,649 185.7,649 217.1,721.6 "/>
<polygon class="st0" points="-53.4,721.6 -53.4,649 -38.4,649 -38.4,709.8 -0.8,709.8 -0.8,721.6 "/>
<polygon class="st0" points="62.4,721.6 31.1,649 47.2,649 70.9,704.4 94.8,649 109.4,649 78,721.6 "/>
<linearGradient id="SVGID_1_" gradientUnits="userSpaceOnUse" x1="34.201" y1="758.4929" x2="-10.509" y2="620.6529" gradientTransform="matrix(1 0 0 -1 0 1193.35)">
	<stop  offset="0" style="stop-color:#FF8741"/>
	<stop  offset="1" style="stop-color:#FF506C"/>
</linearGradient>
<path class="st1" d="M4.3,597.8l15.2-31.3l15.2,31.3H4.3z M-124,480.2c35.9-21.8,112.3-6.5,137.3,37.7l-48.7,104.7
	c0.5-36.5-49.3-39.2-2.8-80C-88.7,529.5-62.5,472-124,480.2z M162.9,480.2c-35.8-21.8-112.2-6.5-137.2,37.7l48.7,104.7
	c-0.5-36.5,49.3-39.2,2.8-80C127.8,529.5,101.5,472,162.9,480.2L162.9,480.2z"/>
</svg>
